<svg xmlns="http://www.w3.org/2000/svg" viewBox="0 0 200 200" width="100%" height="100%">
  <circle cx="100" cy="100" r="90" fill="#F4D14B" />

  <path d="M 55 125 C 20 120, 25 155, 55 160 C 85 165, 115 155, 125 145" 
        fill="none" stroke="#1A1A1A" stroke-width="4.5" stroke-linecap="round" />
  <path d="M 55 125 C 20 120, 25 155, 55 160 C 85 165, 115 155, 125 145" 
        fill="none" stroke="#FFFFFF" stroke-width="1.5" stroke-linecap="round" />

  <path d="M 72 52 
           C 67 43, 63 36, 58 37 
           C 52 38, 55 52, 60 62
           C 40 85, 38 120, 60 145
           C 80 168, 120 168, 140 145
           C 162 120, 160 85, 140 62
           C 145 52, 148 38, 142 37
           C 137 36, 133 43, 128 52
           Z" 
        fill="#FFFFFF" stroke="#1A1A1A" stroke-width="4.5" stroke-linejoin="round" />

  <ellipse cx="68" cy="73" rx="6" ry="4" fill="#EFAAA7" />
  <ellipse cx="132" cy="73" rx="6" ry="4" fill="#EFAAA7" />

  <circle cx="82" cy="67" r="2.5" fill="#1A1A1A" />
  <circle cx="118" cy="67" r="2.5" fill="#1A1A1A" />
  <path d="M 97 70 C 97 73, 100 73, 100 70 C 100 73, 103 73, 103 70" 
        fill="none" stroke="#1A1A1A" stroke-width="2.5" stroke-linecap="round" />
  <polygon points="98,67 102,67 100,69" fill="#1A1A1A" />

  <circle cx="100" cy="94" r="16" fill="#8FAFB2" stroke="#1A1A1A" stroke-width="4.5" />
  <path d="M 90 82 C 96 86, 96 102, 90 106" fill="none" stroke="#1A1A1A" stroke-width="2.5" stroke-linecap="round" />
  <path d="M 100 78 C 104 86, 104 102, 100 110" fill="none" stroke="#1A1A1A" stroke-width="2.5" stroke-linecap="round" />
  <path d="M 110 82 C 104 86, 104 102, 110 106" fill="none" stroke="#1A1A1A" stroke-width="2.5" stroke-linecap="round" />

  <path d="M 102 80 
           C 115 65, 140 70, 120 50
           C 110 40, 140 25, 150 35
           C 155 40, 145 45, 140 40" 
        fill="none" stroke="#1A1A1A" stroke-width="3" stroke-linecap="round" />

  <path d="M 72 90 C 80 82, 88 92, 88 94" fill="none" stroke="#1A1A1A" stroke-width="4.5" stroke-linecap="round" />
  <path d="M 128 90 C 120 82, 112 92, 112 94" fill="none" stroke="#1A1A1A" stroke-width="4.5" stroke-linecap="round" />

  <path d="M 75 130 C 70 135, 75 145, 82 140" fill="none" stroke="#1A1A1A" stroke-width="4.5" stroke-linecap="round" />
  <path d="M 125 130 C 130 135, 125 145, 118 140" fill="none" stroke="#1A1A1A" stroke-width="4.5" stroke-linecap="round" />
  
  <circle cx="115" cy="132" r="1.5" fill="#1A1A1A" />
</svg>
